<svg width="24" height="24" viewBox="0 0 24 24" fill="none" xmlns="http://www.w3.org/2000/svg">
<g id="arrow-narrow-right">
<path id="Vector" fill-rule="evenodd" clip-rule="evenodd" d="M14.752 6.35159C14.977 6.12662 15.2822 6.00024 15.6004 6.00024C15.9186 6.00024 16.2238 6.12662 16.4488 6.35159L21.2488 11.1516C21.4738 11.3766 21.6001 11.6818 21.6001 12C21.6001 12.3182 21.4738 12.6234 21.2488 12.8484L16.4488 17.6484C16.2225 17.867 15.9193 17.9879 15.6047 17.9852C15.2901 17.9825 14.9891 17.8563 14.7666 17.6338C14.5441 17.4113 14.4179 17.1103 14.4152 16.7957C14.4124 16.481 14.5334 16.1779 14.752 15.9516L17.5036 13.2H3.60039C3.28213 13.2 2.97691 13.0736 2.75186 12.8485C2.52682 12.6235 2.40039 12.3182 2.40039 12C2.40039 11.6817 2.52682 11.3765 2.75186 11.1515C2.97691 10.9264 3.28213 10.8 3.60039 10.8H17.5036L14.752 8.04839C14.527 7.82335 14.4006 7.51818 14.4006 7.19999C14.4006 6.88179 14.527 6.57662 14.752 6.35159Z" fill="#FFB356"/>
</g>
</svg>
